<svg xmlns="http://www.w3.org/2000/svg" viewBox="0 0 568 433" width="1000" height="762">
	<style>
		tspan { white-space:pre }
		.shp0 { fill: #000000 } 
		.shp1 { fill: #808a93 } 
		.shp2 { fill: #e41319 } 
	</style>
	<path id="Layer" class="shp0" d="M278.76 372.14C224.62 372.14 172.06 356.67 126.8 327.4C83.96 299.72 49.56 261.06 27.12 215.45C49.56 169.83 83.96 131.18 126.8 103.49C172.06 74.22 224.62 58.75 278.76 58.75C293.91 58.75 308.91 60 323.67 62.38C324.95 55.4 328.18 49.7 332.53 44.77C314.9 41.56 296.92 39.93 278.76 39.93C220.98 39.93 164.89 56.45 116.58 87.67C69.53 118.09 32.04 160.88 8.16 211.43C6.94 213.97 6.94 216.93 8.16 219.47C32.04 270.01 69.53 312.81 116.58 343.22C164.89 374.44 220.98 390.97 278.76 390.97C294.42 390.97 309.93 389.72 325.21 387.33C323.04 381.29 320.73 375.3 318.41 369.34C305.35 371.19 292.11 372.14 278.76 372.14Z" />
	<path id="Layer" class="shp0" d="M278.76 336.67C211.92 336.67 157.54 282.29 157.54 215.44C157.54 148.6 211.92 94.21 278.76 94.21C311.46 94.21 341.16 107.24 362.98 128.37C367.76 124.58 372.93 120.85 378.44 117.18C353.02 91.4 317.74 75.39 278.76 75.39C201.53 75.39 138.71 138.22 138.71 215.44C138.71 292.66 201.53 355.5 278.76 355.5C290.09 355.5 301.08 354.11 311.63 351.56C309.43 345.59 307.41 339.61 305.66 333.62C297 335.59 288.01 336.67 278.76 336.67Z" />
	<path id="Layer" class="shp1" d="M278.76 314.79C223.97 314.79 179.42 270.22 179.42 215.44C179.42 160.67 223.97 116.1 278.76 116.1C305.03 116.1 328.87 126.4 346.65 143.11C351.52 138.03 356.97 133.14 362.98 128.37C341.16 107.24 311.46 94.21 278.76 94.21C211.92 94.21 157.54 148.6 157.54 215.44C157.54 282.29 211.92 336.67 278.76 336.67C288.01 336.67 297 335.59 305.66 333.62C303.6 326.52 301.94 319.39 300.98 312.2C293.82 313.84 286.41 314.79 278.76 314.79Z" />
	<path id="Layer" class="shp2" d="M320.02 185.09L357.13 185.09C352.06 173.93 344.41 163.96 334.91 155.7C328.21 164.35 322.97 173.59 319.23 183.67C319.49 184.15 319.79 184.6 320.02 185.09Z" />
	<path id="Layer" class="shp2" d="M317.8 252.63C315.7 237.97 315.14 224.83 315.98 212.81C311.49 217.01 305.47 219.6 298.85 219.6C285.01 219.6 273.75 208.34 273.75 194.5C273.75 180.65 285.01 169.38 298.85 169.38C308.84 169.38 317.42 175.28 321.45 183.76C324.59 174.33 329 165.68 334.64 157.59C320.15 143.58 300.46 134.92 278.76 134.92C240.03 134.92 207.62 162.41 199.96 198.89L231.7 198.89C234.19 198.89 236.59 199.88 238.36 201.65L265.02 228.33C267.92 227.17 271.08 226.52 274.38 226.52C288.21 226.52 299.48 237.77 299.48 251.62C299.48 265.45 288.21 276.72 274.38 276.72C260.53 276.72 249.27 265.45 249.27 251.62C249.27 247.97 250.06 244.52 251.47 241.38L227.8 217.72L198.31 217.72C199.51 261.07 235.13 295.96 278.77 295.96C286.21 295.96 293.38 294.87 300.22 292.97C300.49 288.3 301.02 283.59 302.08 278.83C302.08 273.59 317.8 257.87 317.8 252.63Z" />
	<path id="Layer" class="shp2" d="M320.66 203.92C319.09 207.43 316.7 210.56 313.7 213.11C312.76 225.54 313.39 239.13 315.76 254.3C315.76 259.71 297.95 275.97 297.95 281.39C296.75 286.32 296.14 291.18 295.84 296.01C334.38 286.26 362.79 254.05 362.79 215.84C362.79 211.78 362.47 207.82 361.85 203.92L320.66 203.92Z" />
	<path id="Layer" class="shp0" d="M393.31 100.92C391.2 98.8 387.79 98.8 385.68 100.92L374.08 112.5C367.77 106.63 360.9 101.36 353.57 96.73L361.75 82.55C363.25 79.96 362.36 76.66 359.77 75.17C357.19 73.67 353.89 74.55 352.4 77.14L344.23 91.3C336.63 87.29 328.64 83.92 320.31 81.34L323.55 69.25L323.04 69.25C323.04 66.44 323.34 63.83 323.87 61.36C323.17 60.24 322.09 59.35 320.71 58.98C317.84 58.23 314.87 59.92 314.09 62.8L309.87 78.57C301.56 76.69 292.98 75.53 284.18 75.2L284.18 58.86C284.18 55.88 281.77 53.46 278.78 53.46C275.8 53.46 273.39 55.88 273.39 58.86L273.39 75.2C264.59 75.53 256.02 76.68 247.7 78.57L243.48 62.8C242.7 59.92 239.76 58.21 236.86 58.98C233.98 59.75 232.27 62.72 233.04 65.6L237.26 81.34C228.93 83.92 220.94 87.29 213.34 91.3L205.17 77.14C203.68 74.55 200.37 73.67 197.8 75.17C195.21 76.66 194.33 79.96 195.82 82.55L204.01 96.73C196.67 101.36 189.8 106.63 183.47 112.5L171.88 100.92C169.78 98.8 166.36 98.8 164.25 100.92C162.14 103.02 162.14 106.44 164.25 108.55L175.84 120.13C169.98 126.47 164.71 133.33 160.07 140.66L145.89 132.48C143.31 130.97 140 131.87 138.51 134.46C137.03 137.04 137.9 140.34 140.48 141.83L154.65 150C150.94 157.01 147.82 164.34 145.32 171.98C145.31 172.01 145.28 172.03 145.27 172.07C145.26 172.1 145.27 172.13 145.26 172.16C145.07 172.75 144.85 173.33 144.67 173.92L128.93 169.7C126.07 168.95 123.09 170.64 122.32 173.52C121.55 176.4 123.26 179.36 126.14 180.14L141.91 184.36C140.02 192.67 138.87 201.25 138.53 210.05L122.2 210.05C119.22 210.05 116.81 212.46 116.81 215.45C116.81 218.43 119.22 220.85 122.2 220.85L138.53 220.85C138.87 229.64 140.02 238.22 141.91 246.53L126.14 250.76C123.27 251.53 121.55 254.49 122.32 257.37C122.96 259.79 125.14 261.38 127.53 261.38C128 261.38 128.47 261.32 128.94 261.19L144.67 256.97C147.26 265.3 150.62 273.29 154.65 280.89L140.48 289.06C137.9 290.54 137.02 293.85 138.51 296.44C139.52 298.17 141.32 299.13 143.2 299.13C144.11 299.13 145.04 298.9 145.89 298.41L160.07 290.22C164.71 297.56 169.98 304.42 175.84 310.76L164.25 322.34C162.14 324.45 162.14 327.86 164.25 329.98C165.3 331.03 166.69 331.56 168.07 331.56C169.45 331.56 170.84 331.03 171.89 329.98L183.48 318.39C187.44 322.07 191.64 325.53 196.02 328.73C196.12 328.82 196.17 328.94 196.28 329.02C196.43 329.13 196.6 329.17 196.76 329.26C199.13 330.97 201.55 332.61 204.02 334.16L195.83 348.34C194.34 350.94 195.22 354.23 197.81 355.72C198.65 356.21 199.59 356.45 200.5 356.45C202.37 356.45 204.18 355.48 205.19 353.74L213.37 339.59C220.95 343.61 228.94 346.97 237.28 349.56L233.05 365.3C232.28 368.17 234 371.14 236.87 371.91C237.34 372.03 237.81 372.09 238.28 372.09C240.66 372.09 242.84 370.51 243.49 368.09L247.72 352.32C256.03 354.21 264.61 355.36 273.4 355.7L273.4 372.03C273.4 375.01 275.82 377.43 278.8 377.43C281.78 377.43 284.2 375.01 284.2 372.03L284.2 355.7C292.99 355.36 301.58 354.21 309.89 352.32L314.11 368.09C314.76 370.51 316.93 372.09 319.33 372.09C319.38 372.09 319.43 372.07 319.48 372.07C315.52 361.87 311.52 351.77 308.16 341.65C298.72 343.85 288.89 345.03 278.79 345.03C252.3 345.03 227.64 337.02 207.09 323.32L209.08 320.59C206.51 318.01 203.93 315.43 201.35 312.85L198.37 316.95C168.45 293.19 149.21 256.54 149.21 215.45C149.21 203.37 150.9 191.69 154 180.57L154.81 180.83C155.12 176.73 156.07 173.6 158.91 170.82L157.33 170.3C175.1 122.65 220.15 88.19 273.39 85.99L273.39 88.02C276.99 88.02 280.59 88.02 284.19 88.02L284.19 85.99C317.46 87.37 347.53 101.34 369.75 123.26C377.14 117.86 385.25 112.56 394.16 107.28C395.28 105.23 395.05 102.65 393.31 100.92Z" />
	<g id="Layer">
		<path id="Layer" class="shp0" d="M321.63 399.73C317.54 402.54 315.02 407.34 315.47 412.6C316.16 420.42 323.06 426.19 330.91 425.5C332.2 425.38 333.4 425.06 334.56 424.63C327.81 399.45 316.44 375.49 308.67 351.41L321.63 399.73Z" />
		<path id="Layer" class="shp0" d="M340.15 28.8C345.82 27.89 350.01 23.08 350.12 17.39C337.17 26.75 326.48 37.62 326.42 55.61L332.17 55.63L326.42 55.61C326.48 37.62 337.17 26.75 350.12 17.39C350.13 16.97 350.17 16.56 350.13 16.13C349.55 9.61 343.81 4.8 337.27 5.39C330.73 5.95 325.9 11.69 326.48 18.19C326.77 21.56 328.47 24.47 330.95 26.41L302.44 130.68C305.48 131.73 308.43 132.95 311.28 134.31L340.15 28.8Z" />
		<path id="Layer" class="shp0" d="M500.26 173.57C498.97 158.82 485.91 147.92 471.1 149.2C457.31 150.4 446.87 161.77 446.55 175.23L360.79 190.84C356.84 177.13 349.65 164.93 340.2 154.91L392.1 109.76C394.97 112.63 399.02 114.31 403.39 113.94C411.23 113.25 417.04 106.38 416.36 98.57C415.66 90.75 408.75 84.98 400.91 85.67C393.15 86.34 387.42 93.1 387.96 100.8L333.35 148.33C328.19 143.92 322.52 140.13 316.47 136.99C324.46 141.47 331.62 147.11 337.8 153.62C352.63 131.93 375.59 113.94 406.75 95.99C375.59 113.94 352.63 131.93 337.8 153.62C361.76 178.82 370.91 216.92 355.61 250.18C345.12 272.82 325.36 292.36 300.44 299.34C299.72 309.96 300.7 320.38 302.81 330.7L308.44 351.69C316.21 375.77 327.59 399.73 334.34 424.92C340.22 422.76 344.2 416.94 343.63 410.41C343.02 403.41 337.38 398.08 330.57 397.56L304.1 298.87C322.92 292.51 338.73 280.16 349.39 264.2L369.51 276.73C368.18 280.23 367.47 284.02 367.84 288.01C369.05 301.89 381.36 312.16 395.27 310.94C409.22 309.72 419.52 297.48 418.29 283.6C417.08 269.72 404.8 259.44 390.84 260.66C384.34 261.23 378.67 264.27 374.55 268.71L354.22 256.05C361.76 241.63 365.48 225.01 363.96 207.62C363.73 205.06 363.34 202.58 362.92 200.08L448.02 184.57C451.91 195.98 463.22 203.72 475.79 202.62C490.6 201.33 501.56 188.32 500.26 173.57Z" />
	</g>
	<path id="Layer" class="shp0" d="M346.65 143.11C342.18 147.77 338.14 152.57 334.63 157.59C342.63 165.32 349.06 174.65 353.33 185.09L322.11 185.09C321.92 184.63 321.66 184.21 321.45 183.76C318.49 192.66 316.71 202.31 315.98 212.81C318.62 210.34 320.73 207.31 322.11 203.92L358.45 203.92C358.99 207.69 359.27 211.52 359.27 215.44C359.27 252.39 334.22 283.55 300.22 292.97C299.85 299.45 300.12 305.85 300.97 312.2C345.08 302.07 378.11 262.58 378.11 215.44C378.11 186.92 365.97 161.24 346.65 143.11Z" />
	<path id="Layer" fill-rule="evenodd" class="shp0" d="M301.21 312.2C294.04 313.84 286.61 314.79 278.95 314.79C224.06 314.79 179.42 270.22 179.42 215.44C179.42 160.67 224.06 116.1 278.95 116.1C305.27 116.1 329.16 126.41 346.97 143.11C342.49 147.77 338.44 152.57 334.93 157.59C320.41 143.58 300.69 134.92 278.95 134.92C240.15 134.92 207.67 162.41 200 198.89L231.8 198.89C234.3 198.89 236.69 199.88 238.47 201.65L265.18 228.33C268.09 227.17 271.25 226.52 274.55 226.52C288.42 226.52 299.7 237.77 299.7 251.62C299.7 265.45 288.42 276.72 274.55 276.72C260.68 276.72 249.4 265.45 249.4 251.62C249.4 247.97 250.19 244.52 251.61 241.38L227.89 217.72L198.34 217.72C199.55 261.07 235.23 295.96 278.95 295.96C286.41 295.96 293.6 294.87 300.45 292.97C300.08 299.45 300.35 305.86 301.21 312.2ZM268.26 251.62C268.26 255.07 271.08 257.89 274.55 257.89C278.02 257.89 280.84 255.07 280.84 251.62C280.84 248.16 278.02 245.34 274.55 245.34C271.08 245.34 268.26 248.15 268.26 251.62Z" />
	<path id="Layer" fill-rule="evenodd" class="shp0" d="M321.61 183.76C318.64 192.66 316.85 202.31 316.12 212.81C311.62 217.01 305.57 219.6 298.94 219.6C285.04 219.6 273.75 208.34 273.75 194.5C273.75 180.65 285.04 169.38 298.94 169.38C308.96 169.38 317.56 175.28 321.61 183.76ZM305.24 194.5C305.24 191.04 302.41 188.22 298.94 188.22C295.46 188.22 292.64 191.04 292.64 194.5C292.64 197.96 295.46 200.77 298.94 200.77C302.41 200.77 305.24 197.96 305.24 194.5Z" />
</svg>